<?xml version="1.0" encoding="UTF-8"?>
<svg id="Layer_2" data-name="Layer 2" xmlns="http://www.w3.org/2000/svg" viewBox="0 0 151.27 187.22">
  <g id="Layer_1-2" data-name="Layer 1">
    <g>
      <path d="M.29,39.03c.07-3.74,1.73-5.04,4.1-5.04,1.87,0,3.1,1.22,5.04,2.3,4.39,2.38,10.73,5.76,16.92,6.77,1.8.29,2.81,1.3,2.59,2.81-.07,1.3-1.44,2.81-3.38,2.52-6.19-.86-12.67-3.24-17.86-6.12-.43-.22-.79-.07-.72.22,1.66,9.15,9.58,16.06,18.51,16.06,9.72,0,15.77-7.49,19.59-22.9,4.32-18.15,11.81-20.16,13.83-20.16,1.73,0,2.95,1.01,2.95,2.52,0,.79-.36,1.51-1.37,2.23-1.51,1.15-5.54,3.82-8.57,16.56-4.32,18.36-12.67,27.51-26.35,27.51S.36,55.08.29,39.03ZM18.58,20.23c0-7.63,9.07-13.9,21.03-15.34-.07-.36-.22-.65-.36-.94-.29-.58-.36-1.01-.36-1.37,0-1.44,1.44-2.59,3.17-2.59,1.87,0,3.6,1.58,4.25,4.68,11.23.29,17.07,3.82,26.93,3.82,9.15,0,9.29-5.04,12.1-5.04,2.09,0,3.31,1.15,3.31,2.95,0,.65-.14,1.08-.65,1.8-1.37,1.87-5.54,6.19-14.83,6.19-11.16,0-16.42-3.38-26.79-3.82-1.51,9.36-9.94,18.58-17.86,18.58-6.12,0-9.94-3.31-9.94-8.93ZM39.39,10.87c-7.78,1.22-13.75,5.18-13.75,9.43,0,1.87,1.3,3.1,3.17,3.1,3.96,0,9.07-6.34,10.58-12.53Z"/>
      <path d="M83.31,61.93c-4.68,0-7.63-2.74-7.63-7.34,0-5.9,6.55-12.96,6.55-17.64,0-.65-.5-1.08-1.37-1.08-3.1,0-7.78,4.75-11.02,8.64-2.88,3.38-6.12,9.43-7.78,14.62-.43,1.37-1.22,2.81-3.38,2.81-1.37,0-2.74-.79-2.74-2.66,0-.65.07-1.01.29-1.73,4.39-13.54,10.73-28.44,15.55-39.89.94-2.16,2.45-3.24,4.25-3.24s2.95,1.08,2.95,2.52c0,1.01-.72,2.88-3.38,7.27l-6.19,15.12c3.96-4.39,8.78-8.21,12.67-8.21s6.77,2.45,6.77,6.12c0,5.9-6.62,12.02-6.62,17.86,0,1.66.79,2.59,1.94,2.59,3.02,0,6.91-4.61,10.15-9.65.94-1.51,1.8-2.59,3.17-2.59,1.44,0,2.66,1.01,2.66,2.3,0,.5-.14,1.01-.43,1.44-4.39,6.77-10.22,12.75-16.42,12.75Z"/>
      <path d="M113.19,53.72c1.15-1.37,2.09-2.02,3.1-2.02,1.51,0,2.67,1.08,2.67,2.66,0,2.52-5.83,7.63-13.54,7.63s-11.67-3.6-11.67-10.22c0-11.88,11.45-20.67,19.73-20.67,5.47,0,8.64,2.23,8.64,6.19,0,5.54-9,10.87-20.88,12.6-.07.5-.07,1.08-.07,1.66,0,3.6,2.23,5.54,5.26,5.54,2.74,0,4.97-1.3,6.77-3.38ZM102.38,45.29c7.7-1.58,12.82-4.9,12.82-8.35,0-.94-.86-1.44-2.09-1.44-3.46,0-8.42,3.96-10.73,9.79Z"/>
      <path d="M56.81,106c-4.97,13.54-12.89,20.31-24.77,20.31-13.03,0-24.63-8.42-24.63-23.19,0-5.47,2.59-8.28,5.83-8.28,1.58,0,3.17.36,5.54,1.3,5.33,2.16,14.47,5.9,25.71,5.9,2.3,0,4.54-.14,6.7-.5.58-1.8,1.15-3.67,1.66-5.69,4.54-19.08,12.53-21.17,14.76-21.17,1.87,0,3.1,1.01,3.1,2.45,0,.79-.5,1.37-1.58,2.16-1.8,1.3-6.41,4.03-9.65,17.71l-.65,2.52c3.02-1.08,5.9-2.45,8.57-4.03,2.74-1.66,4.39-2.3,5.83-2.3,1.58,0,2.52,1.08,2.52,2.81,0,.79-.36,1.58-.86,2.59-.5,1.08-1.22,3.38-1.44,5.83-.22,2.3-1.08,3.89-3.1,3.89s-3.1-1.22-3.1-3.67c0-.86.14-1.94.36-3.02-3.24,1.73-6.91,3.24-10.8,4.39ZM31.97,120.47c7.49,0,12.96-4.25,16.92-12.89-1.51.14-3.02.22-4.54.22-11.23,0-20.67-2.88-25.49-4.82-1.8-.72-2.52-1.01-3.24-1.01-.79,0-1.15.43-1.15,1.3,0,9.94,8.86,17.21,17.5,17.21ZM22.9,78.63c0-7.63,9.07-13.9,21.03-15.34-.07-.36-.22-.65-.36-.94-.29-.58-.36-1.01-.36-1.37,0-1.44,1.44-2.59,3.17-2.59,1.87,0,3.6,1.58,4.25,4.68,11.23.29,17.07,3.82,26.93,3.82,9.15,0,9.29-5.04,12.1-5.04,2.09,0,3.31,1.15,3.31,2.95,0,.65-.14,1.08-.65,1.8-1.37,1.87-5.54,6.19-14.83,6.19-11.16,0-16.42-3.38-26.79-3.82-1.51,9.36-9.94,18.58-17.86,18.58-6.12,0-9.94-3.31-9.94-8.93ZM43.71,69.27c-7.78,1.22-13.75,5.18-13.75,9.43,0,1.87,1.3,3.1,3.17,3.1,3.96,0,9.07-6.34,10.58-12.53Z"/>
      <path d="M101.81,123.93c-4.03,0-7.49-2.16-7.99-6.41-3.02,3.74-6.41,6.41-9.86,6.41-4.68,0-7.78-2.74-7.78-7.99,0-4.75,3.02-11.67,5.62-16.71,2.38-4.68,4.03-6.12,6.12-6.12,1.66,0,2.74,1.01,2.74,2.45,0,1.15-.94,3.17-3.67,7.56-2.45,5.11-4.1,9.43-4.1,12.96,0,2.3,1.22,3.17,2.16,3.17,2.66,0,5.33-3.02,8.06-6.98,2.52-3.6,4.9-9.07,6.84-13.61,1.87-4.39,3.53-5.54,5.62-5.54,1.51,0,2.52,1.01,2.52,2.38,0,1.15-.94,3.24-3.67,7.63-2.45,5.11-4.1,9.43-4.1,12.96,0,2.59,1.37,3.6,2.38,3.6,3.02,0,6.91-4.61,10.15-9.65.94-1.51,1.8-2.59,3.17-2.59,1.44,0,2.67,1.01,2.67,2.3,0,.5-.14,1.01-.43,1.44-4.39,6.77-10.15,12.75-16.42,12.75Z"/>
      <path d="M119.95,123.93c-5.11,0-8.28-2.66-8.28-8.06,0-6.98,7.42-22.97,12.82-33.34,2.02-3.89,4.39-6.12,5.9-6.12,1.73,0,2.88,1.08,2.88,2.66,0,2.81-4.18,10.01-8.79,17.86h-.07c-3.46,7.63-6.12,14.83-6.12,19.15,0,2.38,1.08,3.53,2.52,3.53,3.02,0,6.98-4.54,10.22-9.58.94-1.51,1.8-2.59,3.17-2.59,1.44,0,2.66,1.01,2.66,2.3,0,.5-.14,1.01-.43,1.44-4.39,6.77-10.3,12.75-16.49,12.75Z"/>
      <path d="M142.42,116.8c.79-1.3,1.66-1.73,2.52-1.73,1.01,0,1.87.72,1.87,1.8,0,2.38-3.82,7.06-8.86,7.06s-8.28-2.66-8.28-8.06c0-6.98,7.42-22.97,12.82-33.34,2.02-3.89,4.39-6.12,5.9-6.12,1.73,0,2.88,1.08,2.88,2.66,0,2.81-4.18,10.01-8.78,17.86h-.07c-3.46,7.63-6.12,14.83-6.12,19.15,0,2.38,1.01,3.53,2.38,3.53,1.3,0,2.74-1.22,3.74-2.81Z"/>
      <path d="M23.19,181.53c8.35,0,13.46-5.91,13.46-12.53,0-9.43-10.3-14.19-10.3-24.63,0-8.86,8.42-15.63,18.07-15.63,2.16,0,4.18.29,5.98.86,3.31-2.02,6.77-3.24,9.29-3.24,1.66,0,2.74.79,2.74,2.23s-.58,2.02-3.1,2.66c-1.01.29-2.23.72-3.46,1.3,2.16,2.02,3.46,4.61,3.46,7.63,0,6.48-5.11,11.23-10.3,11.23s-8.57-3.1-8.57-7.99c0-3.24,1.66-6.41,4.03-9.07h-.22c-5.54,0-10.44,4.1-10.44,9.36,0,8.78,10.44,13.75,10.44,24.48s-8.93,19.01-21.1,19.01c-12.96,0-23.19-7.99-23.19-22.25,0-3.53,1.66-5.18,3.6-5.18,2.52,0,3.89,1.22,5.69,2.45,3.38,2.3,8.5,5.33,13.54,5.98,1.73.22,2.74,1.51,2.59,2.81-.14,1.44-1.44,2.59-3.24,2.38-5.11-.65-10.3-2.74-14.47-5.33-.58-.36-1.01,0-.94.5,1.15,7.56,8.42,12.96,16.42,12.96ZM50.76,135.95c-2.38,2.02-4.1,4.61-4.1,7.49,0,1.8.86,2.88,2.52,2.88,1.94,0,3.82-2.81,3.82-6.12,0-1.8-.79-3.24-2.23-4.25Z"/>
      <path d="M84.03,169.44c1.44,0,2.66,1.01,2.66,2.3,0,.5-.14,1.01-.43,1.44-4.9,7.71-12.46,12.75-22.39,12.75-8.5,0-13.32-3.6-13.32-10.15,0-11.88,11.45-20.67,19.73-20.67,5.47,0,8.64,2.23,8.64,6.19,0,5.54-9,10.87-20.88,12.6-.07.5-.07,1.08-.07,1.66,0,3.6,2.88,5.54,6.7,5.54,6.77,0,12.46-3.24,16.2-9.07.94-1.51,1.8-2.59,3.17-2.59ZM59.18,169.29c7.71-1.58,12.82-4.9,12.82-8.35,0-.94-.86-1.44-2.09-1.44-3.46,0-8.42,3.96-10.73,9.79Z"/>
      <path d="M92.74,178.8c.79-1.3,1.66-1.73,2.52-1.73,1.01,0,1.87.72,1.87,1.8,0,2.38-3.89,7.06-9,7.06s-8.57-2.74-8.57-8.06c0-4.32,2.66-11.45,5.83-18.51h-2.23c-1.58,0-2.59-.65-2.59-2.16s1.01-2.09,2.59-2.09h4.18l3.74-7.27c2.38-4.61,4.39-6.12,5.9-6.12,1.8,0,2.95,1.01,2.95,2.52,0,1.08-1.01,2.95-2.81,5.83l-2.52,5.04h3.1c1.58,0,2.52.86,2.52,2.02,0,1.51-1.01,2.23-2.52,2.23h-5.18c-3.38,7.27-6.26,14.62-6.26,19.01,0,2.3,1.08,3.24,2.59,3.24,1.37,0,2.88-1.15,3.89-2.81Z"/>
    </g>
  </g>
</svg>